# xmcd CD database file
#
# Track frame offsets:
#	150
#	24027
#	57947
#	88894
#	117882
#	176755
#
# Disc length: 2782 seconds
#
# Revision: 0
# Processed by: cddbd v1.5.2PL0 Copyright (c) Steve Scherf et al.
# Submitted via: CDex 2.18
#
DISCID=440adc06
DTITLE=Hot Wired Rhythm Band - Live at Highway 99 Blues Club
DYEAR=2013
DGENRE=Blues
TTITLE0=Shake Your Money Maker
TTITLE1=The Loudest Thing
TTITLE2=Down Home Blues
TTITLE3=Chain Of Fools
TTITLE4=Somebody Loan Me A Dime
TTITLE5=Born Under A Bad Sign
EXTD=YEAR: 2013
EXTT0=
EXTT1=
EXTT2=
EXTT3=
EXTT4=
EXTT5=
PLAYORDER=
